<?xml version="1.0" encoding="UTF-8"?>
<svg id="Capa_2" data-name="Capa 2" xmlns="http://www.w3.org/2000/svg" viewBox="0 0 319.46 805.25">
  <defs>
    <style>
      .cls-1 {
        fill: #b11917;
        stroke-width: 0px;
      }
    </style>
  </defs>
  <g>
    <path class="cls-1" d="m31.33,259.66c-6.78-4.63-13.32-9.71-18.76-15.85-5.47-6.17-9.82-13.5-11.66-21.54-1.9-8.28-.85-16.96,3.3-24.39.98-1.76,2.24-3.45,3.37-5.12s2.36-3.32,3.79-4.77c2.96-3.01,7.12-5.24,11.3-4.6,2.59.4,4.91,1.85,6.89,3.58,3.56,3.1,6.21,7.12,8.45,11.28,1.51,2.8,2.88,5.82,2.88,9,0,4.73-2.93,8.87-5.13,13.06-6.26,11.93-6.85,26.19-4.32,39.42-.04-.02-.07-.05-.11-.07Z"/>
    <path class="cls-1" d="m76.53,186.18c10.69-4.68,13.91-18.19,10.82-28.6-4.53-15.31-18.35-23.96-30.87-19.32-15.65,5.8-23.74,26.01-18.08,45.14,7.08,23.92,28.68,37.43,48.24,30.19,9.25-3.43,11.59-15.49,8.62-23.82-.26-.73-.59-1.49-1.22-1.95-.66-.48-1.53-.55-2.34-.6-4.89-.31-10.44.01-15.17-1.04Z"/>
    <path class="cls-1" d="m119.12,108.81c.16-.11.32-.21.49-.31,3.03-1.86,5.26-4.86,5.53-8.41.51-6.79-1.25-16.12-15.62-13.51-19.62,3.57-35.17,37.54-24.74,55.87,1.92,3.37,5.92,5.12,9.72,4.3,4.99-1.08,12.77-.98,17.48,7.82.42.78.01,1.76-.82,2.05-1.88.65-5.47,1.01-10.22-2.49-.75-.55-1.83-.23-2.18.64-2.04,5.15-6.42,19.82,9.87,20.01,17.51.2,32.12-9.86,34.17-27.85.72-6.33.11-12.74-.69-19.06-.24-1.93-.52-3.92-1.49-5.61-2.56-4.52-11.4-4.23-15.89-4.57-.89-.07-1.84-.06-2.82-.04-4.79.13-6.79-6.21-2.79-8.85Z"/>
    <path class="cls-1" d="m204.75,56.34c-2.37-7.29-7.24-13.88-14.88-15.08-11.26-1.78-22.51-1.48-32.88,9.48-10.37,10.96-9.48,42.06-4.44,55.39,4.2,11.13,12.88,22.02,22.5,28.97,4.2,3.03,9.16,5.28,14.39,5.62,4.16.27,8.76-1.82,12.34-3.82,7.57-4.25,14.75-11.54,16.27-20.4.32-1.86.46-4.92-1.1-6.34-.59-.54-1.83-.9-2.55-1.28-2.7-1.43-5.34-2.97-7.9-4.65-4.3-2.82-12.18-7.69-12.18-13.64,0-7.21.42-14.52,7.96-17.91,1.26-.56,2.69-1,3.47-2.13.61-.87.7-2,.72-3.06.06-3.48-.5-7.41-1.71-11.15Z"/>
    <path class="cls-1" d="m230.3,58.77c-1.56.84-3.42-.28-3.41-2.05,0-2.1-.08-4.29-.04-4.91.19-3.19.42-6.39.91-9.55,1-6.56,3.2-12.75,6.34-18.59C239.82,13.01,250.24-.43,263.74.01c5.08.16,9.83,2.55,14.09,5.32,19.26,12.49,32.25,34.18,34.16,57.05s-7.28,46.42-24.19,61.95c-2.86,2.63-6.1,5.12-9.93,5.81-3.43.62-6.94-.27-10.27-1.31-9.84-3.08-19.86-8.09-24.85-17.12-4.24-7.68-4.11-17.05-2.54-25.68,1-5.52,2.66-11.15,6.39-15.33,2.18-2.44,5-4.3,6.89-6.97,1.89-2.67,2.58-6.69.29-9.03-2.03-2.08-5.38-1.93-8.24-1.39-5.37,1.02-10.49,2.89-15.28,5.47Z"/>
    <path class="cls-1" d="m117.73,485.65l.49,3.89.07-.13-.55-3.76Z"/>
    <path class="cls-1" d="m143.55,637.08c-.05.37.03.75.3,1.14-.1-.39-.22-.75-.3-1.14Z"/>
  </g>
  <path class="cls-1" d="m315.35,228.18c-7.56-26.74-26.34-50.04-50.67-63.48-24.31-13.43-53.82-16.99-80.75-10.16-32.73,8.28-60.01,30.63-83.84,54.55-11.99,12.01-23.41,24.6-34.22,37.68-5.4,6.54-10.65,13.21-15.75,20-4.61,6.14-12.19,13.95-14.5,20.96,24.18-13.16,43.16-35.67,63.18-54.08,21.45-19.72,46.26-38,75.14-41.82,20.15-2.67,40.8,2.05,59.26,10.56,13.23,6.09,25.91,14.47,33.82,26.69,17.1,26.38,7.43,61.42-5.25,90.18-3.27,7.39-6.87,14.97-13.08,20.15-4.29,3.61-9.54,5.82-14.71,7.98-19.99,8.35-39.96,16.7-59.95,25.07,9.88-1.26,20.04-.35,29.53,2.63-10.41,6.2-24.26,6.07-34.56-.32l-14.79,5.94c1.93-20.81,2.73-41.72,2.4-62.63-.1-5.87-.29-11.85-2.15-17.44-5.72-17.15-24.65-25.45-41.6-31.78-.27,15.86-.54,31.74-.8,47.62,7.48,3.61,9.44,15.11,3.59,20.99-.91.91-2.03,1.73-3.32,1.83-3.84.35-5.28-4.86-5.33-8.72-.29-19.43-.55-38.87-.84-58.3-.05-3.97-1.21-9.19-5.16-9.46.99,44.32,1.98,88.63,2.97,132.95l-56.27,17.25c-1.37.94-2.72,1.93-4.04,2.93-4.43,3.39-8.57,7.14-12.34,11.23l-15.8,23.29,30,.91,65.29-16.72c5.72,40.56,11.44,81.14,17.15,121.7.18-23.74-1.58-47.49-5.27-70.94,1.51-17.69,3.02-35.38,4.53-53.07.62,4.39,4.49,8.1,8.9,8.55,2.98,11.08,1.96,23.21-2.85,33.64-1.43,3.09-3.2,6.24-2.95,9.61.25,3.39,3.76,6.74,6.84,5.33.08,12.69.17,25.35.25,38.05,0-1.95,3.07-2.53,4.46-1.16,1.39,1.39,1.49,3.57,1.49,5.53.07,17,.12,34.01.18,51.01,0,2.57-.1,5.42-1.91,7.23-1.73,1.74-5.5,1.12-5.8-1.17.84,16.25,3.42,32.4,7.71,48.09.18-1.69,3.1-3.07,4.78-1.81,2.05,1.53,2.21,4.48,2.18,7.04-.1,8.99-.18,17.96-.29,26.95.3-1.81,3.39-2.52,4.88-1.11,1.66,1.58,1.73,4.14,1.68,6.42-.13,6.62-.29,13.23-.42,19.85-3.99-.37-7.96-.74-11.96-1.11-11.35-9.04-20.89-20.34-27.88-33.05-22.87-41.57-18.48-96.72-50.47-131.74-3.35,65.06-6.61,131.26,9.17,194.46,4.46,17.86,10.71,35.85,22.89,49.65,13.4,15.16,32.81,23.83,52.5,28.56,20.88,5.03,43.19,6.02,63.6-.65,31.67-10.38,55.95-39.71,61.54-72.55,4.71-27.88-2.98-56.17-9.62-83.65-17.15-71.08-27.28-146.92-4.76-216.49,10.82-33.47,28.81-64.14,41.99-96.75.29-.69.55-1.37.84-2.06,12.71-32.09,20.51-67.71,11.17-100.84Zm-189.88,181.56s-4.91,7.71-7.29,0l.54-6.2h-6.76v-61.62h6.22s2.97,4.14,5.94,2.67c2.95-1.49,0,16.6,0,16.6,0,0-5.4,1.73-5.4.02.05,1.83,0,30.18,0,30.18,0,0,7.43-2.97,6.72,0-.74,2.97.03,18.36.03,18.36Zm17.89-24.87v-55.12s4.44-10.63,6.24,0v55.12s.86,7.68-3.12,6.82c-4.02-.91-3.12-6.82-3.12-6.82Zm30.57,266.64s-1.32,8.69-5.77,0v-66.85s2.23-8.89,5.77-1.11v67.96Zm18.31-168.87c-3,33.17,3.49,66.37,5.63,99.6,1.53,23.12.96,46.31-1.54,69.33-.99,9.07-2.4,18.48-7.55,26.04l-15.86-136.96c-2.16,1.51-5-.4-5.25-.52.18,1.04,2.53,13.78-.03,18.6-2.65,5.03-5.62,0-5.62,0v-37.91c-7.41.59-7.13-23.98-7.13-23.98-6.2-.91-5.25-30.25-5.25-30.25-6.36-3.79-6.39-43.34-6.39-44.12.8,3.27,5.43,3.86,8.67,12.44,3.27,8.6,4.66,49.45,4.66,49.45,9.66.62,5.43,7.34,5.43,7.34l.59,23.49,5.33-.32-.3-13.01c.07-1.21.25-2.08.47-2.72l-9.05-78.15,71.46-47.25c-18.81,34.26-34.83,70.24-38.28,108.89Z"/>
</svg>